<svg width="21" height="20" viewBox="0 0 21 20" fill="none" xmlns="http://www.w3.org/2000/svg">
<g opacity="0.7" clip-path="url(#clip0_1_3181)">
<path d="M17.5039 17.5L13.7656 13.755L17.5039 17.5ZM15.8372 8.75002C15.8372 10.6286 15.091 12.4303 13.7626 13.7587C12.4342 15.0871 10.6325 15.8334 8.75391 15.8334C6.87529 15.8334 5.07362 15.0871 3.74523 13.7587C2.41685 12.4303 1.67057 10.6286 1.67057 8.75002C1.67057 6.8714 2.41685 5.06973 3.74523 3.74135C5.07362 2.41296 6.87529 1.66669 8.75391 1.66669C10.6325 1.66669 12.4342 2.41296 13.7626 3.74135C15.091 5.06973 15.8372 6.8714 15.8372 8.75002V8.75002Z" stroke="white" stroke-width="2" stroke-linecap="round"/>
</g>
<defs>
<clipPath id="clip0_1_3181">
<rect width="20" height="20" fill="white" transform="translate(0.00390625)"/>
</clipPath>
</defs>
</svg>
