<svg width="52" height="52" viewBox="0 0 52 52" fill="none" xmlns="http://www.w3.org/2000/svg">
<path d="M6.80001 11.6C10.1857 14.4433 14.2438 16.3713 18.5867 17.2C21.0202 17.7424 23.5068 18.0108 26 18C28.4932 18.0108 30.9798 17.7424 33.4133 17.2C37.7563 16.3713 41.8143 14.4433 45.2 11.6M50 26C50 30.7468 48.5924 35.3869 45.9553 39.3337C43.3181 43.2805 39.5698 46.3566 35.1844 48.1731C30.799 49.9896 25.9734 50.4649 21.3178 49.5389C16.6623 48.6128 12.3859 46.327 9.02945 42.9706C5.67299 39.6141 3.38721 35.3377 2.46116 30.6822C1.53512 26.0266 2.0104 21.201 3.8269 16.8156C5.64341 12.4302 8.71955 8.68188 12.6663 6.04473C16.6131 3.40758 21.2533 2 26 2C32.3652 2 38.4697 4.52856 42.9706 9.02944C47.4714 13.5303 50 19.6348 50 26V26ZM45.2 40.4C41.8143 37.5567 37.7563 35.6287 33.4133 34.8C28.529 33.7308 23.4711 33.7308 18.5867 34.8C14.2438 35.6287 10.1857 37.5567 6.80001 40.4H45.2Z" stroke="#14213D" stroke-width="3" stroke-linecap="round" stroke-linejoin="round"/>
</svg>
